<svg xmlns="http://www.w3.org/2000/svg" xmlns:xlink="http://www.w3.org/1999/xlink" width="1920" zoomAndPan="magnify" viewBox="0 0 1440 209.999996" height="280" preserveAspectRatio="xMidYMid meet" version="1.0"><defs><g/><clipPath id="id1"><path d="M 0 16.847656 L 1440 16.847656 L 1440 193.214844 L 0 193.214844 Z M 0 16.847656 " clip-rule="nonzero"/></clipPath><clipPath id="id2"><path d="M 1259.488281 37.039062 L 1316 37.039062 L 1316 94 L 1259.488281 94 Z M 1259.488281 37.039062 " clip-rule="nonzero"/></clipPath><clipPath id="id3"><path d="M 1298 76 L 1395.4375 76 L 1395.4375 172.988281 L 1298 172.988281 Z M 1298 76 " clip-rule="nonzero"/></clipPath><clipPath id="id4"><path d="M 18.308594 31.175781 L 461.0625 31.175781 L 461.0625 179.0625 L 18.308594 179.0625 Z M 18.308594 31.175781 " clip-rule="nonzero"/></clipPath></defs><g clip-path="url(#id1)"><path fill="#e8e1e1" d="M 1352.109375 16.847656 C 1400.804688 16.847656 1440.277344 56.328125 1440.277344 105.03125 C 1440.277344 153.730469 1400.804688 193.214844 1352.109375 193.214844 L 88.210938 193.214844 C 39.519531 193.214844 0.0429688 153.730469 0.0429688 105.03125 C 0.0429688 56.328125 39.519531 16.847656 88.210938 16.847656 L 1352.109375 16.847656 " fill-opacity="1" fill-rule="nonzero"/></g><g clip-path="url(#id2)"><path fill="#717273" d="M 1279.488281 38.21875 L 1297.222656 55.953125 L 1293.242188 70.800781 L 1278.390625 74.78125 L 1260.660156 57.050781 C 1257.816406 66.601562 1260.148438 77.371094 1267.695312 84.90625 C 1278.65625 95.859375 1296.40625 95.859375 1307.363281 84.90625 C 1318.300781 73.953125 1318.300781 56.203125 1307.363281 45.253906 C 1299.800781 37.714844 1289.03125 35.375 1279.488281 38.21875 Z M 1279.488281 38.21875 " fill-opacity="1" fill-rule="nonzero"/></g><g clip-path="url(#id3)"><path fill="#717273" d="M 1317.886719 76.085938 C 1316.292969 80.480469 1313.75 84.507812 1310.359375 87.902344 C 1306.882812 91.359375 1302.847656 93.855469 1298.511719 95.410156 L 1369.222656 168.484375 C 1375.214844 174.472656 1384.941406 174.472656 1390.941406 168.484375 C 1396.9375 162.488281 1396.9375 152.78125 1390.941406 146.789062 Z M 1385.535156 163.085938 C 1382.84375 165.769531 1378.503906 165.769531 1375.804688 163.085938 C 1373.113281 160.410156 1373.113281 156.039062 1375.804688 153.359375 C 1378.5 150.679688 1382.84375 150.679688 1385.535156 153.359375 C 1388.207031 156.039062 1388.207031 160.410156 1385.535156 163.085938 Z M 1385.535156 163.085938 " fill-opacity="1" fill-rule="nonzero"/></g><g fill="#000000" fill-opacity="1"><g transform="translate(474.707769, 136.01889)"><g><path d="M 16.375 -25.84375 L 16.375 0 L 7.65625 0 L 7.65625 -66.015625 L 32.015625 -66.015625 C 39.234375 -66.015625 44.890625 -64.171875 48.984375 -60.484375 C 53.085938 -56.796875 55.140625 -51.914062 55.140625 -45.84375 C 55.140625 -39.4375 53.132812 -34.5 49.125 -31.03125 C 45.125 -27.570312 39.390625 -25.84375 31.921875 -25.84375 Z M 16.375 -32.96875 L 32.015625 -32.96875 C 36.671875 -32.96875 40.238281 -34.0625 42.71875 -36.25 C 45.195312 -38.4375 46.4375 -41.601562 46.4375 -45.75 C 46.4375 -49.675781 45.195312 -52.816406 42.71875 -55.171875 C 40.238281 -57.535156 36.835938 -58.765625 32.515625 -58.859375 L 16.375 -58.859375 Z M 16.375 -32.96875 "/></g></g></g><g fill="#000000" fill-opacity="1"><g transform="translate(533.291527, 136.01889)"><g><path d="M 36.640625 0 C 36.148438 -0.96875 35.753906 -2.691406 35.453125 -5.171875 C 31.554688 -1.117188 26.898438 0.90625 21.484375 0.90625 C 16.648438 0.90625 12.679688 -0.457031 9.578125 -3.1875 C 6.484375 -5.925781 4.9375 -9.398438 4.9375 -13.609375 C 4.9375 -18.710938 6.878906 -22.675781 10.765625 -25.5 C 14.648438 -28.332031 20.113281 -29.75 27.15625 -29.75 L 35.328125 -29.75 L 35.328125 -33.59375 C 35.328125 -36.53125 34.445312 -38.863281 32.6875 -40.59375 C 30.9375 -42.332031 28.351562 -43.203125 24.9375 -43.203125 C 21.945312 -43.203125 19.4375 -42.445312 17.40625 -40.9375 C 15.382812 -39.425781 14.375 -37.597656 14.375 -35.453125 L 5.9375 -35.453125 C 5.9375 -37.898438 6.804688 -40.265625 8.546875 -42.546875 C 10.285156 -44.828125 12.644531 -46.632812 15.625 -47.96875 C 18.601562 -49.300781 21.875 -49.96875 25.4375 -49.96875 C 31.09375 -49.96875 35.519531 -48.550781 38.71875 -45.71875 C 41.925781 -42.894531 43.585938 -39.003906 43.703125 -34.046875 L 43.703125 -11.46875 C 43.703125 -6.96875 44.28125 -3.382812 45.4375 -0.71875 L 45.4375 0 Z M 22.71875 -6.390625 C 25.34375 -6.390625 27.832031 -7.066406 30.1875 -8.421875 C 32.550781 -9.785156 34.265625 -11.554688 35.328125 -13.734375 L 35.328125 -23.796875 L 28.75 -23.796875 C 18.46875 -23.796875 13.328125 -20.789062 13.328125 -14.78125 C 13.328125 -12.15625 14.203125 -10.097656 15.953125 -8.609375 C 17.710938 -7.128906 19.96875 -6.390625 22.71875 -6.390625 Z M 22.71875 -6.390625 "/></g></g></g><g fill="#000000" fill-opacity="1"><g transform="translate(583.804148, 136.01889)"><g><path d="M 30.0625 -41.53125 C 28.789062 -41.738281 27.414062 -41.84375 25.9375 -41.84375 C 20.4375 -41.84375 16.703125 -39.503906 14.734375 -34.828125 L 14.734375 0 L 6.34375 0 L 6.34375 -49.0625 L 14.515625 -49.0625 L 14.640625 -43.390625 C 17.390625 -47.773438 21.289062 -49.96875 26.34375 -49.96875 C 27.976562 -49.96875 29.21875 -49.753906 30.0625 -49.328125 Z M 30.0625 -41.53125 "/></g></g></g><g fill="#000000" fill-opacity="1"><g transform="translate(615.227178, 136.01889)"><g><path d="M 34.90625 -13.015625 C 34.90625 -15.273438 34.050781 -17.03125 32.34375 -18.28125 C 30.644531 -19.539062 27.671875 -20.625 23.421875 -21.53125 C 19.171875 -22.4375 15.796875 -23.523438 13.296875 -24.796875 C 10.804688 -26.066406 8.960938 -27.578125 7.765625 -29.328125 C 6.578125 -31.085938 5.984375 -33.175781 5.984375 -35.59375 C 5.984375 -39.613281 7.679688 -43.015625 11.078125 -45.796875 C 14.484375 -48.578125 18.832031 -49.96875 24.125 -49.96875 C 29.6875 -49.96875 34.195312 -48.53125 37.65625 -45.65625 C 41.113281 -42.78125 42.84375 -39.109375 42.84375 -34.640625 L 34.421875 -34.640625 C 34.421875 -36.941406 33.441406 -38.921875 31.484375 -40.578125 C 29.535156 -42.242188 27.082031 -43.078125 24.125 -43.078125 C 21.070312 -43.078125 18.679688 -42.410156 16.953125 -41.078125 C 15.234375 -39.742188 14.375 -38.003906 14.375 -35.859375 C 14.375 -33.835938 15.171875 -32.3125 16.765625 -31.28125 C 18.367188 -30.257812 21.265625 -29.28125 25.453125 -28.34375 C 29.640625 -27.40625 33.03125 -26.285156 35.625 -24.984375 C 38.226562 -23.679688 40.15625 -22.113281 41.40625 -20.28125 C 42.664062 -18.457031 43.296875 -16.234375 43.296875 -13.609375 C 43.296875 -9.222656 41.539062 -5.707031 38.03125 -3.0625 C 34.53125 -0.414062 29.984375 0.90625 24.390625 0.90625 C 20.460938 0.90625 16.988281 0.210938 13.96875 -1.171875 C 10.945312 -2.566406 8.582031 -4.507812 6.875 -7 C 5.164062 -9.5 4.3125 -12.195312 4.3125 -15.09375 L 12.703125 -15.09375 C 12.847656 -12.28125 13.96875 -10.050781 16.0625 -8.40625 C 18.164062 -6.757812 20.941406 -5.9375 24.390625 -5.9375 C 27.566406 -5.9375 30.113281 -6.578125 32.03125 -7.859375 C 33.945312 -9.148438 34.90625 -10.867188 34.90625 -13.015625 Z M 34.90625 -13.015625 "/></g></g></g><g fill="#000000" fill-opacity="1"><g transform="translate(663.109877, 136.01889)"><g><path d="M 4.125 -24.984375 C 4.125 -29.785156 5.066406 -34.101562 6.953125 -37.9375 C 8.847656 -41.78125 11.476562 -44.742188 14.84375 -46.828125 C 18.21875 -48.921875 22.066406 -49.96875 26.390625 -49.96875 C 33.066406 -49.96875 38.46875 -47.65625 42.59375 -43.03125 C 46.71875 -38.40625 48.78125 -32.253906 48.78125 -24.578125 L 48.78125 -23.984375 C 48.78125 -19.210938 47.863281 -14.925781 46.03125 -11.125 C 44.207031 -7.332031 41.59375 -4.378906 38.1875 -2.265625 C 34.789062 -0.148438 30.890625 0.90625 26.484375 0.90625 C 19.828125 0.90625 14.4375 -1.40625 10.3125 -6.03125 C 6.1875 -10.65625 4.125 -16.773438 4.125 -24.390625 Z M 12.5625 -23.984375 C 12.5625 -18.546875 13.820312 -14.175781 16.34375 -10.875 C 18.863281 -7.582031 22.242188 -5.9375 26.484375 -5.9375 C 30.742188 -5.9375 34.128906 -7.601562 36.640625 -10.9375 C 39.148438 -14.28125 40.40625 -18.960938 40.40625 -24.984375 C 40.40625 -30.359375 39.125 -34.71875 36.5625 -38.0625 C 34.007812 -41.40625 30.617188 -43.078125 26.390625 -43.078125 C 22.242188 -43.078125 18.898438 -41.425781 16.359375 -38.125 C 13.828125 -34.832031 12.5625 -30.117188 12.5625 -23.984375 Z M 12.5625 -23.984375 "/></g></g></g><g fill="#000000" fill-opacity="1"><g transform="translate(716.071044, 136.01889)"><g><path d="M 14.28125 -49.0625 L 14.546875 -42.890625 C 18.296875 -47.609375 23.195312 -49.96875 29.25 -49.96875 C 39.613281 -49.96875 44.84375 -44.117188 44.9375 -32.421875 L 44.9375 0 L 36.546875 0 L 36.546875 -32.46875 C 36.515625 -36 35.703125 -38.609375 34.109375 -40.296875 C 32.523438 -41.992188 30.054688 -42.84375 26.703125 -42.84375 C 23.984375 -42.84375 21.59375 -42.117188 19.53125 -40.671875 C 17.476562 -39.222656 15.878906 -37.316406 14.734375 -34.953125 L 14.734375 0 L 6.34375 0 L 6.34375 -49.0625 Z M 14.28125 -49.0625 "/></g></g></g><g fill="#000000" fill-opacity="1"><g transform="translate(767.309143, 136.01889)"><g><path d="M 34.90625 -13.015625 C 34.90625 -15.273438 34.050781 -17.03125 32.34375 -18.28125 C 30.644531 -19.539062 27.671875 -20.625 23.421875 -21.53125 C 19.171875 -22.4375 15.796875 -23.523438 13.296875 -24.796875 C 10.804688 -26.066406 8.960938 -27.578125 7.765625 -29.328125 C 6.578125 -31.085938 5.984375 -33.175781 5.984375 -35.59375 C 5.984375 -39.613281 7.679688 -43.015625 11.078125 -45.796875 C 14.484375 -48.578125 18.832031 -49.96875 24.125 -49.96875 C 29.6875 -49.96875 34.195312 -48.53125 37.65625 -45.65625 C 41.113281 -42.78125 42.84375 -39.109375 42.84375 -34.640625 L 34.421875 -34.640625 C 34.421875 -36.941406 33.441406 -38.921875 31.484375 -40.578125 C 29.535156 -42.242188 27.082031 -43.078125 24.125 -43.078125 C 21.070312 -43.078125 18.679688 -42.410156 16.953125 -41.078125 C 15.234375 -39.742188 14.375 -38.003906 14.375 -35.859375 C 14.375 -33.835938 15.171875 -32.3125 16.765625 -31.28125 C 18.367188 -30.257812 21.265625 -29.28125 25.453125 -28.34375 C 29.640625 -27.40625 33.03125 -26.285156 35.625 -24.984375 C 38.226562 -23.679688 40.15625 -22.113281 41.40625 -20.28125 C 42.664062 -18.457031 43.296875 -16.234375 43.296875 -13.609375 C 43.296875 -9.222656 41.539062 -5.707031 38.03125 -3.0625 C 34.53125 -0.414062 29.984375 0.90625 24.390625 0.90625 C 20.460938 0.90625 16.988281 0.210938 13.96875 -1.171875 C 10.945312 -2.566406 8.582031 -4.507812 6.875 -7 C 5.164062 -9.5 4.3125 -12.195312 4.3125 -15.09375 L 12.703125 -15.09375 C 12.847656 -12.28125 13.96875 -10.050781 16.0625 -8.40625 C 18.164062 -6.757812 20.941406 -5.9375 24.390625 -5.9375 C 27.566406 -5.9375 30.113281 -6.578125 32.03125 -7.859375 C 33.945312 -9.148438 34.90625 -10.867188 34.90625 -13.015625 Z M 34.90625 -13.015625 "/></g></g></g><g fill="#000000" fill-opacity="1"><g transform="translate(815.191842, 136.01889)"><g/></g></g><g fill="#000000" fill-opacity="1"><g transform="translate(838.180987, 136.01889)"><g><path d="M 16.375 -25.84375 L 16.375 0 L 7.65625 0 L 7.65625 -66.015625 L 32.015625 -66.015625 C 39.234375 -66.015625 44.890625 -64.171875 48.984375 -60.484375 C 53.085938 -56.796875 55.140625 -51.914062 55.140625 -45.84375 C 55.140625 -39.4375 53.132812 -34.5 49.125 -31.03125 C 45.125 -27.570312 39.390625 -25.84375 31.921875 -25.84375 Z M 16.375 -32.96875 L 32.015625 -32.96875 C 36.671875 -32.96875 40.238281 -34.0625 42.71875 -36.25 C 45.195312 -38.4375 46.4375 -41.601562 46.4375 -45.75 C 46.4375 -49.675781 45.195312 -52.816406 42.71875 -55.171875 C 40.238281 -57.535156 36.835938 -58.765625 32.515625 -58.859375 L 16.375 -58.859375 Z M 16.375 -32.96875 "/></g></g></g><g fill="#000000" fill-opacity="1"><g transform="translate(896.764745, 136.01889)"><g><path d="M 30.0625 -41.53125 C 28.789062 -41.738281 27.414062 -41.84375 25.9375 -41.84375 C 20.4375 -41.84375 16.703125 -39.503906 14.734375 -34.828125 L 14.734375 0 L 6.34375 0 L 6.34375 -49.0625 L 14.515625 -49.0625 L 14.640625 -43.390625 C 17.390625 -47.773438 21.289062 -49.96875 26.34375 -49.96875 C 27.976562 -49.96875 29.21875 -49.753906 30.0625 -49.328125 Z M 30.0625 -41.53125 "/></g></g></g><g fill="#000000" fill-opacity="1"><g transform="translate(928.187791, 136.01889)"><g><path d="M 4.125 -24.984375 C 4.125 -29.785156 5.066406 -34.101562 6.953125 -37.9375 C 8.847656 -41.78125 11.476562 -44.742188 14.84375 -46.828125 C 18.21875 -48.921875 22.066406 -49.96875 26.390625 -49.96875 C 33.066406 -49.96875 38.46875 -47.65625 42.59375 -43.03125 C 46.71875 -38.40625 48.78125 -32.253906 48.78125 -24.578125 L 48.78125 -23.984375 C 48.78125 -19.210938 47.863281 -14.925781 46.03125 -11.125 C 44.207031 -7.332031 41.59375 -4.378906 38.1875 -2.265625 C 34.789062 -0.148438 30.890625 0.90625 26.484375 0.90625 C 19.828125 0.90625 14.4375 -1.40625 10.3125 -6.03125 C 6.1875 -10.65625 4.125 -16.773438 4.125 -24.390625 Z M 12.5625 -23.984375 C 12.5625 -18.546875 13.820312 -14.175781 16.34375 -10.875 C 18.863281 -7.582031 22.242188 -5.9375 26.484375 -5.9375 C 30.742188 -5.9375 34.128906 -7.601562 36.640625 -10.9375 C 39.148438 -14.28125 40.40625 -18.960938 40.40625 -24.984375 C 40.40625 -30.359375 39.125 -34.71875 36.5625 -38.0625 C 34.007812 -41.40625 30.617188 -43.078125 26.390625 -43.078125 C 22.242188 -43.078125 18.898438 -41.425781 16.359375 -38.125 C 13.828125 -34.832031 12.5625 -30.117188 12.5625 -23.984375 Z M 12.5625 -23.984375 "/></g></g></g><g fill="#000000" fill-opacity="1"><g transform="translate(981.148958, 136.01889)"><g><path d="M 47.875 -23.984375 C 47.875 -16.484375 46.148438 -10.457031 42.703125 -5.90625 C 39.265625 -1.363281 34.644531 0.90625 28.84375 0.90625 C 22.644531 0.90625 17.851562 -1.285156 14.46875 -5.671875 L 14.0625 0 L 6.34375 0 L 6.34375 -69.640625 L 14.734375 -69.640625 L 14.734375 -43.65625 C 18.117188 -47.863281 22.785156 -49.96875 28.734375 -49.96875 C 34.691406 -49.96875 39.367188 -47.710938 42.765625 -43.203125 C 46.171875 -38.703125 47.875 -32.539062 47.875 -24.71875 Z M 39.5 -24.9375 C 39.5 -30.644531 38.394531 -35.054688 36.1875 -38.171875 C 33.976562 -41.285156 30.800781 -42.84375 26.65625 -42.84375 C 21.125 -42.84375 17.148438 -40.273438 14.734375 -35.140625 L 14.734375 -13.921875 C 17.304688 -8.785156 21.3125 -6.21875 26.75 -6.21875 C 30.769531 -6.21875 33.898438 -7.769531 36.140625 -10.875 C 38.378906 -13.988281 39.5 -18.675781 39.5 -24.9375 Z M 39.5 -24.9375 "/></g></g></g><g fill="#000000" fill-opacity="1"><g transform="translate(1033.248591, 136.01889)"><g><path d="M 15.46875 0 L 7.078125 0 L 7.078125 -69.640625 L 15.46875 -69.640625 Z M 15.46875 0 "/></g></g></g><g fill="#000000" fill-opacity="1"><g transform="translate(1055.784318, 136.01889)"><g><path d="M 26.703125 0.90625 C 20.054688 0.90625 14.644531 -1.273438 10.46875 -5.640625 C 6.300781 -10.015625 4.21875 -15.859375 4.21875 -23.171875 L 4.21875 -24.71875 C 4.21875 -29.582031 5.144531 -33.925781 7 -37.75 C 8.863281 -41.570312 11.460938 -44.5625 14.796875 -46.71875 C 18.140625 -48.882812 21.757812 -49.96875 25.65625 -49.96875 C 32.039062 -49.96875 37 -47.863281 40.53125 -43.65625 C 44.070312 -39.457031 45.84375 -33.445312 45.84375 -25.625 L 45.84375 -22.125 L 12.609375 -22.125 C 12.722656 -17.289062 14.132812 -13.382812 16.84375 -10.40625 C 19.550781 -7.425781 22.988281 -5.9375 27.15625 -5.9375 C 30.125 -5.9375 32.632812 -6.539062 34.6875 -7.75 C 36.738281 -8.957031 38.535156 -10.5625 40.078125 -12.5625 L 45.203125 -8.5625 C 41.085938 -2.25 34.921875 0.90625 26.703125 0.90625 Z M 25.65625 -43.078125 C 22.269531 -43.078125 19.425781 -41.84375 17.125 -39.375 C 14.832031 -36.914062 13.414062 -33.460938 12.875 -29.015625 L 37.453125 -29.015625 L 37.453125 -29.65625 C 37.210938 -33.914062 36.0625 -37.21875 34 -39.5625 C 31.945312 -41.90625 29.164062 -43.078125 25.65625 -43.078125 Z M 25.65625 -43.078125 "/></g></g></g><g fill="#000000" fill-opacity="1"><g transform="translate(1104.981969, 136.01889)"><g><path d="M 14.234375 -49.0625 L 14.46875 -43.625 C 18.0625 -47.851562 22.910156 -49.96875 29.015625 -49.96875 C 35.878906 -49.96875 40.550781 -47.335938 43.03125 -42.078125 C 44.664062 -44.429688 46.789062 -46.332031 49.40625 -47.78125 C 52.019531 -49.238281 55.109375 -49.96875 58.671875 -49.96875 C 69.429688 -49.96875 74.898438 -44.269531 75.078125 -32.875 L 75.078125 0 L 66.703125 0 L 66.703125 -32.375 C 66.703125 -35.882812 65.898438 -38.503906 64.296875 -40.234375 C 62.691406 -41.972656 60 -42.84375 56.21875 -42.84375 C 53.101562 -42.84375 50.519531 -41.910156 48.46875 -40.046875 C 46.414062 -38.191406 45.222656 -35.695312 44.890625 -32.5625 L 44.890625 0 L 36.453125 0 L 36.453125 -32.140625 C 36.453125 -39.273438 32.960938 -42.84375 25.984375 -42.84375 C 20.484375 -42.84375 16.71875 -40.5 14.6875 -35.8125 L 14.6875 0 L 6.296875 0 L 6.296875 -49.0625 Z M 14.234375 -49.0625 "/></g></g></g><g fill="#000000" fill-opacity="1"><g transform="translate(1186.373498, 136.01889)"><g><path d="M 34.90625 -13.015625 C 34.90625 -15.273438 34.050781 -17.03125 32.34375 -18.28125 C 30.644531 -19.539062 27.671875 -20.625 23.421875 -21.53125 C 19.171875 -22.4375 15.796875 -23.523438 13.296875 -24.796875 C 10.804688 -26.066406 8.960938 -27.578125 7.765625 -29.328125 C 6.578125 -31.085938 5.984375 -33.175781 5.984375 -35.59375 C 5.984375 -39.613281 7.679688 -43.015625 11.078125 -45.796875 C 14.484375 -48.578125 18.832031 -49.96875 24.125 -49.96875 C 29.6875 -49.96875 34.195312 -48.53125 37.65625 -45.65625 C 41.113281 -42.78125 42.84375 -39.109375 42.84375 -34.640625 L 34.421875 -34.640625 C 34.421875 -36.941406 33.441406 -38.921875 31.484375 -40.578125 C 29.535156 -42.242188 27.082031 -43.078125 24.125 -43.078125 C 21.070312 -43.078125 18.679688 -42.410156 16.953125 -41.078125 C 15.234375 -39.742188 14.375 -38.003906 14.375 -35.859375 C 14.375 -33.835938 15.171875 -32.3125 16.765625 -31.28125 C 18.367188 -30.257812 21.265625 -29.28125 25.453125 -28.34375 C 29.640625 -27.40625 33.03125 -26.285156 35.625 -24.984375 C 38.226562 -23.679688 40.15625 -22.113281 41.40625 -20.28125 C 42.664062 -18.457031 43.296875 -16.234375 43.296875 -13.609375 C 43.296875 -9.222656 41.539062 -5.707031 38.03125 -3.0625 C 34.53125 -0.414062 29.984375 0.90625 24.390625 0.90625 C 20.460938 0.90625 16.988281 0.210938 13.96875 -1.171875 C 10.945312 -2.566406 8.582031 -4.507812 6.875 -7 C 5.164062 -9.5 4.3125 -12.195312 4.3125 -15.09375 L 12.703125 -15.09375 C 12.847656 -12.28125 13.96875 -10.050781 16.0625 -8.40625 C 18.164062 -6.757812 20.941406 -5.9375 24.390625 -5.9375 C 27.566406 -5.9375 30.113281 -6.578125 32.03125 -7.859375 C 33.945312 -9.148438 34.90625 -10.867188 34.90625 -13.015625 Z M 34.90625 -13.015625 "/></g></g></g><g clip-path="url(#id4)"><path fill="#f4d454" d="M 387.25 31.175781 C 428.015625 31.175781 461.058594 64.28125 461.058594 105.121094 C 461.058594 145.957031 428.015625 179.0625 387.25 179.0625 L 92.117188 179.0625 C 51.355469 179.0625 18.308594 145.957031 18.308594 105.121094 C 18.308594 64.28125 51.355469 31.175781 92.117188 31.175781 L 387.25 31.175781 " fill-opacity="1" fill-rule="nonzero"/></g><g fill="#000000" fill-opacity="1"><g transform="translate(44.68986, 140.372128)"><g><path d="M 48.5625 -66.015625 L 48.609375 -21.265625 C 48.546875 -18.273438 48.019531 -15.429688 47.03125 -12.734375 C 46.050781 -10.046875 44.671875 -7.695312 42.890625 -5.6875 C 41.109375 -3.675781 38.945312 -2.070312 36.40625 -0.875 C 33.863281 0.3125 31.023438 0.90625 27.890625 0.90625 C 24.710938 0.90625 21.851562 0.316406 19.3125 -0.859375 C 16.769531 -2.035156 14.609375 -3.632812 12.828125 -5.65625 C 11.046875 -7.6875 9.65625 -10.046875 8.65625 -12.734375 C 7.65625 -15.429688 7.144531 -18.273438 7.125 -21.265625 L 7.203125 -66.015625 L 12.328125 -66.015625 L 12.46875 -21.265625 C 12.5 -18.992188 12.859375 -16.804688 13.546875 -14.703125 C 14.242188 -12.609375 15.242188 -10.75 16.546875 -9.125 C 17.847656 -7.507812 19.453125 -6.21875 21.359375 -5.25 C 23.265625 -4.289062 25.441406 -3.8125 27.890625 -3.8125 C 30.335938 -3.8125 32.503906 -4.289062 34.390625 -5.25 C 36.273438 -6.21875 37.859375 -7.507812 39.140625 -9.125 C 40.429688 -10.75 41.414062 -12.609375 42.09375 -14.703125 C 42.78125 -16.804688 43.148438 -18.992188 43.203125 -21.265625 L 43.296875 -66.015625 Z M 48.5625 -66.015625 "/></g></g></g><g fill="#000000" fill-opacity="1"><g transform="translate(100.416987, 140.372128)"><g><path d="M 13.734375 -49.0625 L 14.140625 -39.859375 C 15.867188 -42.910156 18.164062 -45.347656 21.03125 -47.171875 C 23.90625 -49.003906 27.171875 -49.9375 30.828125 -49.96875 C 36.210938 -49.96875 40.320312 -48.359375 43.15625 -45.140625 C 46 -41.921875 47.4375 -37.347656 47.46875 -31.421875 L 47.46875 0 L 42.03125 0 L 42.03125 -31.328125 C 42 -35.835938 40.96875 -39.289062 38.9375 -41.6875 C 36.914062 -44.09375 33.773438 -45.28125 29.515625 -45.25 C 27.765625 -45.25 26.09375 -44.960938 24.5 -44.390625 C 22.914062 -43.816406 21.46875 -43.03125 20.15625 -42.03125 C 18.84375 -41.03125 17.675781 -39.847656 16.65625 -38.484375 C 15.644531 -37.128906 14.820312 -35.648438 14.1875 -34.046875 L 14.1875 0 L 8.75 0 L 8.75 -49.0625 Z M 13.734375 -49.0625 "/></g></g></g><g fill="#000000" fill-opacity="1"><g transform="translate(156.144114, 140.372128)"><g><path d="M 13.734375 -49.0625 L 14.140625 -39.859375 C 15.867188 -42.910156 18.164062 -45.347656 21.03125 -47.171875 C 23.90625 -49.003906 27.171875 -49.9375 30.828125 -49.96875 C 36.210938 -49.96875 40.320312 -48.359375 43.15625 -45.140625 C 46 -41.921875 47.4375 -37.347656 47.46875 -31.421875 L 47.46875 0 L 42.03125 0 L 42.03125 -31.328125 C 42 -35.835938 40.96875 -39.289062 38.9375 -41.6875 C 36.914062 -44.09375 33.773438 -45.28125 29.515625 -45.25 C 27.765625 -45.25 26.09375 -44.960938 24.5 -44.390625 C 22.914062 -43.816406 21.46875 -43.03125 20.15625 -42.03125 C 18.84375 -41.03125 17.675781 -39.847656 16.65625 -38.484375 C 15.644531 -37.128906 14.820312 -35.648438 14.1875 -34.046875 L 14.1875 0 L 8.75 0 L 8.75 -49.0625 Z M 13.734375 -49.0625 "/></g></g></g><g fill="#000000" fill-opacity="1"><g transform="translate(211.871241, 140.372128)"><g><path d="M 42.484375 0 C 42.148438 -1 41.890625 -2.109375 41.703125 -3.328125 C 41.523438 -4.554688 41.40625 -5.804688 41.34375 -7.078125 C 40.414062 -5.921875 39.332031 -4.859375 38.09375 -3.890625 C 36.851562 -2.929688 35.5 -2.09375 34.03125 -1.375 C 32.5625 -0.664062 30.976562 -0.109375 29.28125 0.296875 C 27.59375 0.703125 25.828125 0.90625 23.984375 0.90625 C 21.691406 0.90625 19.550781 0.570312 17.5625 -0.09375 C 15.582031 -0.757812 13.859375 -1.695312 12.390625 -2.90625 C 10.929688 -4.113281 9.785156 -5.570312 8.953125 -7.28125 C 8.117188 -8.988281 7.703125 -10.898438 7.703125 -13.015625 C 7.703125 -15.828125 8.320312 -18.210938 9.5625 -20.171875 C 10.800781 -22.140625 12.476562 -23.734375 14.59375 -24.953125 C 16.71875 -26.179688 19.164062 -27.082031 21.9375 -27.65625 C 24.71875 -28.226562 27.640625 -28.515625 30.703125 -28.515625 L 41.3125 -28.515625 L 41.3125 -34.09375 C 41.28125 -35.9375 40.914062 -37.5625 40.21875 -38.96875 C 39.519531 -40.375 38.570312 -41.550781 37.375 -42.5 C 36.1875 -43.457031 34.769531 -44.175781 33.125 -44.65625 C 31.476562 -45.144531 29.6875 -45.390625 27.75 -45.390625 C 26 -45.390625 24.328125 -45.160156 22.734375 -44.703125 C 21.148438 -44.253906 19.742188 -43.601562 18.515625 -42.75 C 17.296875 -41.90625 16.304688 -40.867188 15.546875 -39.640625 C 14.796875 -38.421875 14.390625 -37.039062 14.328125 -35.5 L 8.890625 -35.546875 C 8.972656 -37.628906 9.519531 -39.546875 10.53125 -41.296875 C 11.550781 -43.054688 12.921875 -44.578125 14.640625 -45.859375 C 16.367188 -47.148438 18.375 -48.15625 20.65625 -48.875 C 22.9375 -49.601562 25.375 -49.96875 27.96875 -49.96875 C 30.570312 -49.96875 33.015625 -49.632812 35.296875 -48.96875 C 37.578125 -48.300781 39.554688 -47.300781 41.234375 -45.96875 C 42.910156 -44.644531 44.238281 -42.984375 45.21875 -40.984375 C 46.207031 -38.992188 46.71875 -36.664062 46.75 -34 L 46.75 -10.25 C 46.75 -8.613281 46.890625 -6.960938 47.171875 -5.296875 C 47.460938 -3.640625 47.820312 -2.054688 48.25 -0.546875 L 48.28125 0 Z M 24.578125 -3.90625 C 26.484375 -3.875 28.300781 -4.097656 30.03125 -4.578125 C 31.769531 -5.066406 33.363281 -5.738281 34.8125 -6.59375 C 36.269531 -7.457031 37.554688 -8.484375 38.671875 -9.671875 C 39.796875 -10.867188 40.675781 -12.179688 41.3125 -13.609375 L 41.3125 -24.34375 L 31.421875 -24.34375 C 29.035156 -24.34375 26.738281 -24.160156 24.53125 -23.796875 C 22.320312 -23.441406 20.367188 -22.847656 18.671875 -22.015625 C 16.984375 -21.179688 15.632812 -20.066406 14.625 -18.671875 C 13.613281 -17.285156 13.109375 -15.550781 13.109375 -13.46875 C 13.109375 -11.988281 13.410156 -10.65625 14.015625 -9.46875 C 14.617188 -8.289062 15.429688 -7.285156 16.453125 -6.453125 C 17.484375 -5.628906 18.691406 -5 20.078125 -4.5625 C 21.472656 -4.125 22.972656 -3.90625 24.578125 -3.90625 Z M 24.578125 -3.90625 "/></g></g></g><g fill="#000000" fill-opacity="1"><g transform="translate(267.598368, 140.372128)"><g><path d="M 8.9375 -49.0625 L 9.0625 -43.578125 C 10.0625 -45.484375 11.429688 -47.015625 13.171875 -48.171875 C 14.910156 -49.335938 17.109375 -49.9375 19.765625 -49.96875 C 21.160156 -49.96875 22.394531 -49.804688 23.46875 -49.484375 C 24.539062 -49.171875 25.46875 -48.726562 26.25 -48.15625 C 27.039062 -47.582031 27.707031 -46.894531 28.25 -46.09375 C 28.789062 -45.289062 29.226562 -44.421875 29.5625 -43.484375 C 30.59375 -45.328125 32.003906 -46.859375 33.796875 -48.078125 C 35.597656 -49.304688 37.84375 -49.9375 40.53125 -49.96875 C 42.644531 -49.96875 44.410156 -49.601562 45.828125 -48.875 C 47.253906 -48.15625 48.40625 -47.175781 49.28125 -45.9375 C 50.15625 -44.695312 50.78125 -43.257812 51.15625 -41.625 C 51.539062 -39.988281 51.734375 -38.265625 51.734375 -36.453125 L 51.6875 0 L 46.609375 0 L 46.5625 -36.453125 C 46.5625 -37.515625 46.457031 -38.570312 46.25 -39.625 C 46.039062 -40.6875 45.671875 -41.640625 45.140625 -42.484375 C 44.609375 -43.328125 43.863281 -44.003906 42.90625 -44.515625 C 41.957031 -45.035156 40.742188 -45.28125 39.265625 -45.25 C 37.753906 -45.21875 36.476562 -44.972656 35.4375 -44.515625 C 34.394531 -44.066406 33.53125 -43.476562 32.84375 -42.75 C 32.164062 -42.03125 31.640625 -41.222656 31.265625 -40.328125 C 30.890625 -39.441406 30.609375 -38.546875 30.421875 -37.640625 L 30.375 0 L 25.296875 0 L 25.25 -36.953125 C 25.25 -37.984375 25.144531 -38.992188 24.9375 -39.984375 C 24.726562 -40.984375 24.359375 -41.875 23.828125 -42.65625 C 23.296875 -43.445312 22.5625 -44.082031 21.625 -44.5625 C 20.6875 -45.050781 19.492188 -45.28125 18.046875 -45.25 C 16.597656 -45.21875 15.363281 -44.988281 14.34375 -44.5625 C 13.332031 -44.144531 12.488281 -43.582031 11.8125 -42.875 C 11.132812 -42.164062 10.585938 -41.347656 10.171875 -40.421875 C 9.765625 -39.492188 9.441406 -38.535156 9.203125 -37.546875 L 9.15625 0 L 4.03125 0 L 4.03125 -49.0625 Z M 8.9375 -49.0625 "/></g></g></g><g fill="#000000" fill-opacity="1"><g transform="translate(323.325478, 140.372128)"><g><path d="M 29.703125 0.90625 C 26.285156 0.90625 23.171875 0.269531 20.359375 -1 C 17.546875 -2.269531 15.132812 -3.992188 13.125 -6.171875 C 11.113281 -8.347656 9.554688 -10.894531 8.453125 -13.8125 C 7.347656 -16.726562 6.78125 -19.832031 6.75 -23.125 L 6.75 -25.078125 C 6.78125 -28.578125 7.363281 -31.835938 8.5 -34.859375 C 9.632812 -37.890625 11.179688 -40.519531 13.140625 -42.75 C 15.109375 -44.988281 17.421875 -46.75 20.078125 -48.03125 C 22.742188 -49.320312 25.601562 -49.96875 28.65625 -49.96875 C 31.914062 -49.96875 34.800781 -49.378906 37.3125 -48.203125 C 39.820312 -47.023438 41.929688 -45.414062 43.640625 -43.375 C 45.347656 -41.332031 46.644531 -38.945312 47.53125 -36.21875 C 48.425781 -33.5 48.890625 -30.585938 48.921875 -27.484375 L 48.921875 -24.171875 L 12.203125 -24.171875 L 12.203125 -23.125 C 12.234375 -20.550781 12.671875 -18.09375 13.515625 -15.75 C 14.359375 -13.414062 15.550781 -11.351562 17.09375 -9.5625 C 18.632812 -7.78125 20.492188 -6.351562 22.671875 -5.28125 C 24.847656 -4.207031 27.265625 -3.671875 29.921875 -3.671875 C 32.941406 -3.640625 35.675781 -4.195312 38.125 -5.34375 C 40.582031 -6.5 42.671875 -8.164062 44.390625 -10.34375 L 47.828125 -7.75 C 46.921875 -6.476562 45.847656 -5.304688 44.609375 -4.234375 C 43.367188 -3.160156 41.984375 -2.242188 40.453125 -1.484375 C 38.929688 -0.734375 37.265625 -0.148438 35.453125 0.265625 C 33.640625 0.691406 31.722656 0.90625 29.703125 0.90625 Z M 28.65625 -45.34375 C 26.445312 -45.34375 24.421875 -44.925781 22.578125 -44.09375 C 20.734375 -43.257812 19.113281 -42.101562 17.71875 -40.625 C 16.332031 -39.144531 15.1875 -37.398438 14.28125 -35.390625 C 13.375 -33.378906 12.753906 -31.179688 12.421875 -28.796875 L 43.484375 -28.796875 L 43.484375 -29.375 C 43.421875 -31.40625 43.046875 -33.378906 42.359375 -35.296875 C 41.679688 -37.210938 40.71875 -38.910156 39.46875 -40.390625 C 38.21875 -41.878906 36.679688 -43.078125 34.859375 -43.984375 C 33.046875 -44.890625 30.976562 -45.34375 28.65625 -45.34375 Z M 28.65625 -45.34375 "/></g></g></g><g fill="#000000" fill-opacity="1"><g transform="translate(379.052589, 140.372128)"><g><path d="M 7.125 -24.984375 C 7.125 -28.242188 7.53125 -31.378906 8.34375 -34.390625 C 9.15625 -37.398438 10.367188 -40.0625 11.984375 -42.375 C 13.609375 -44.6875 15.632812 -46.53125 18.0625 -47.90625 C 20.5 -49.28125 23.363281 -49.96875 26.65625 -49.96875 C 29.769531 -49.96875 32.554688 -49.300781 35.015625 -47.96875 C 37.484375 -46.632812 39.550781 -44.773438 41.21875 -42.390625 L 41.21875 -69.640625 L 46.609375 -69.640625 L 46.609375 0 L 41.53125 0 L 41.3125 -6.390625 C 39.582031 -4.035156 37.460938 -2.226562 34.953125 -0.96875 C 32.441406 0.28125 29.644531 0.90625 26.5625 0.90625 C 23.332031 0.90625 20.5 0.203125 18.0625 -1.203125 C 15.632812 -2.609375 13.609375 -4.46875 11.984375 -6.78125 C 10.367188 -9.09375 9.15625 -11.75 8.34375 -14.75 C 7.53125 -17.757812 7.125 -20.851562 7.125 -24.03125 Z M 12.609375 -24.03125 C 12.609375 -21.582031 12.867188 -19.148438 13.390625 -16.734375 C 13.921875 -14.316406 14.773438 -12.144531 15.953125 -10.21875 C 17.140625 -8.300781 18.679688 -6.753906 20.578125 -5.578125 C 22.484375 -4.398438 24.8125 -3.8125 27.5625 -3.8125 C 29.101562 -3.8125 30.5625 -4.003906 31.9375 -4.390625 C 33.3125 -4.785156 34.582031 -5.351562 35.75 -6.09375 C 36.914062 -6.832031 37.957031 -7.722656 38.875 -8.765625 C 39.800781 -9.816406 40.582031 -10.988281 41.21875 -12.28125 L 41.21875 -36.046875 C 40.613281 -37.410156 39.863281 -38.648438 38.96875 -39.765625 C 38.082031 -40.878906 37.0625 -41.84375 35.90625 -42.65625 C 34.757812 -43.476562 33.488281 -44.113281 32.09375 -44.5625 C 30.707031 -45.019531 29.226562 -45.25 27.65625 -45.25 C 24.875 -45.25 22.53125 -44.648438 20.625 -43.453125 C 18.726562 -42.265625 17.179688 -40.707031 15.984375 -38.78125 C 14.785156 -36.863281 13.921875 -34.695312 13.390625 -32.28125 C 12.867188 -29.863281 12.609375 -27.429688 12.609375 -24.984375 Z M 12.609375 -24.03125 "/></g></g></g></svg>